<svg width="24" height="24" viewBox="0 0 24 24" fill="none" xmlns="http://www.w3.org/2000/svg"><style type="text/css">.noggles{fill:#513340;}.tintable{fill:#000000;}</style><rect x="0" y="0" width="24" height="24" fill="#3e5d25"/><rect x="10" y="3" width="1" height="1" fill="black"/><rect x="9" y="4" width="7" height="2" fill="black"/><rect x="12" y="3" width="1" height="1" fill="black"/><rect x="14" y="3" width="1" height="1" fill="black"/><rect x="13" y="3" width="1" height="1" fill="#F38B7C"/><rect x="11" y="3" width="1" height="1" fill="#F38B7C"/><rect x="5" y="16" width="1" height="1" fill="#F38B7C"/><rect x="18" y="16" width="1" height="1" fill="#F38B7C"/><rect x="12" y="11" width="1" height="1" fill="#7C3C58"/><rect x="12" y="13" width="1" height="1" fill="black"/><rect x="8" y="18" width="3" height="2" fill="black"/><rect x="12" y="18" width="3" height="2" fill="black"/><rect x="12" y="12" width="1" height="1" fill="#36262D"/><rect x="12" y="14" width="1" height="1" fill="#36262D"/><rect x="12" y="16" width="1" height="2" fill="#36262D"/><rect x="12" y="15" width="1" height="1" fill="black"/><rect x="12" y="20" width="1" height="1" fill="black"/><rect x="12" y="21" width="3" height="1" fill="black"/><rect x="8" y="21" width="3" height="1" fill="black"/><rect x="9" y="20" width="1" height="1" fill="black"/><rect x="10" y="9" width="1" height="9" fill="#36262D"/><rect x="8" y="9" width="2" height="9" class="tintable"/><rect x="15" y="9" width="2" height="9" class="tintable"/><rect x="18" y="9" width="2" height="7" class="tintable"/><rect x="4" y="9" width="3" height="7" class="tintable"/><rect x="14" y="9" width="1" height="9" fill="#36262D"/><rect x="11" y="11" width="1" height="7" fill="#36262D"/><rect x="13" y="11" width="1" height="7" fill="#36262D"/><rect x="11" y="9" width="3" height="1" fill="#F38B7C"/><rect x="11" y="10" width="3" height="1" fill="#7C3C58"/><rect x="9" y="6" width="7" height="3" fill="#F38B7C"/><rect x="20" y="11" width="1" height="5" class="tintable"/><rect x="6" y="8" width="1" height="2" class="noggles"/><rect x="8" y="6" width="1" height="4" class="noggles"/><rect x="13" y="6" width="1" height="4" class="noggles"/><rect x="16" y="6" width="1" height="4" class="noggles"/><rect x="11" y="6" width="1" height="4" class="noggles"/><rect x="7" y="8" width="1" height="1" class="noggles"/><rect x="12" y="8" width="1" height="1" class="noggles"/><rect x="9" y="6" width="2" height="1" class="noggles"/><rect x="14" y="6" width="2" height="1" class="noggles"/><rect x="14" y="7" width="1" height="3" class="noggles"/><rect x="9" y="7" width="1" height="3" class="noggles"/><rect x="10" y="8" width="1" height="2" class="noggles"/><rect x="15" y="8" width="1" height="2" class="noggles"/><rect x="15" y="7" width="1" height="1" fill="white"/><rect x="10" y="7" width="1" height="1" fill="white"/></svg>