<svg width="24" height="24" viewBox="0 0 24 24" fill="none" xmlns="http://www.w3.org/2000/svg"><style type="text/css">.noggles{fill:#513340;}.tintable{fill:#000000;}</style><rect x="0" y="0" width="24" height="24" fill="#3e5d25"/><rect x="11" y="2" width="2" height="1" fill="#16786C"/><rect x="16" y="4" width="1" height="1" fill="#16786C"/><rect x="7" y="4" width="7" height="1" fill="#16786C"/><rect x="7" y="5" width="10" height="2" fill="#16786C"/><rect x="6" y="7" width="12" height="2" fill="#16786C"/><rect x="7" y="9" width="10" height="3" fill="#16786C"/><rect x="8" y="3" width="6" height="1" fill="#16786C"/><rect x="8" y="12" width="8" height="1" fill="#16786C"/><rect x="11" y="13" width="2" height="1" fill="#16786C"/><rect x="10" y="4" width="1" height="1" fill="#369F49"/><rect x="15" y="2" width="1" height="1" fill="#453F41"/><rect x="16" y="2" width="1" height="1" fill="#FD5442"/><rect x="14" y="3" width="2" height="2" fill="#453F41"/><rect x="17" y="9" width="1" height="1" fill="#369F49"/><rect x="12" y="10" width="1" height="1" fill="#369F49"/><rect x="14" y="13" width="1" height="1" fill="#369F49"/><rect x="12" y="21" width="2" height="1" fill="black"/><rect x="9" y="21" width="2" height="1" fill="black"/><rect x="10" y="13" width="1" height="8" class="tintable"/><rect x="12" y="14" width="1" height="7" class="tintable"/><rect x="8" y="11" width="1" height="1" fill="#369F49"/><rect x="3" y="8" width="1" height="3" class="noggles"/><rect x="4" y="8" width="2" height="1" class="noggles"/><rect x="6" y="6" width="1" height="6" class="noggles"/><rect x="7" y="11" width="4" height="1" class="noggles"/><rect x="7" y="6" width="4" height="1" class="noggles"/><rect x="11" y="6" width="1" height="6" class="noggles"/><rect x="12" y="8" width="1" height="1" class="noggles"/><rect x="13" y="6" width="1" height="6" class="noggles"/><rect x="18" y="6" width="1" height="6" class="noggles"/><rect x="14" y="6" width="4" height="1" class="noggles"/><rect x="14" y="11" width="4" height="1" class="noggles"/><rect x="16" y="7" width="2" height="4" fill="black"/><rect x="9" y="7" width="2" height="4" fill="black"/><rect x="14" y="7" width="2" height="4" fill="white"/><rect x="7" y="7" width="2" height="4" fill="white"/></svg>