<svg width="24" height="24" viewBox="0 0 24 24" fill="none" xmlns="http://www.w3.org/2000/svg"><style type="text/css">.noggles{fill:#513340;}.tintable{fill:#000000;}</style><rect x="0" y="0" width="24" height="24" fill="#3e5d25"/><rect x="9" y="21" width="5" height="1" class="tintable"/><rect x="10" y="20" width="3" height="1" fill="#513340"/><rect x="11" y="19" width="1" height="1" fill="#513340"/><rect x="10" y="19" width="1" height="1" fill="#369F49"/><rect x="14" y="19" width="1" height="1" fill="#369F49"/><rect x="17" y="17" width="1" height="1" fill="#369F49"/><rect x="13" y="15" width="2" height="1" fill="#369F49"/><rect x="9" y="15" width="3" height="1" fill="#369F49"/><rect x="14" y="16" width="3" height="1" fill="#369F49"/><rect x="8" y="19" width="1" height="1" fill="#369F49"/><rect x="5" y="17" width="1" height="1" fill="#369F49"/><rect x="6" y="15" width="1" height="1" fill="#369F49"/><rect x="8" y="14" width="1" height="1" fill="#369F49"/><rect x="16" y="13" width="1" height="1" fill="#369F49"/><rect x="15" y="11" width="1" height="1" fill="#369F49"/><rect x="14" y="10" width="1" height="1" fill="#369F49"/><rect x="11" y="11" width="3" height="1" fill="#369F49"/><rect x="7" y="13" width="1" height="1" fill="#369F49"/><rect x="7" y="10" width="1" height="1" fill="#369F49"/><rect x="9" y="4" width="1" height="1" fill="#369F49"/><rect x="13" y="4" width="1" height="1" fill="#369F49"/><rect x="11" y="2" width="1" height="3" fill="#369F49"/><rect x="10" y="5" width="3" height="1" fill="#369F49"/><rect x="9" y="10" width="4" height="1" fill="#369F49"/><rect x="11" y="6" width="2" height="4" fill="#369F49"/><rect x="8" y="11" width="2" height="1" fill="#369F49"/><rect x="9" y="13" width="5" height="1" fill="#369F49"/><rect x="10" y="12" width="5" height="1" fill="#369F49"/><rect x="10" y="14" width="6" height="1" fill="#369F49"/><rect x="7" y="16" width="6" height="1" fill="#369F49"/><rect x="6" y="18" width="11" height="1" fill="#369F49"/><rect x="8" y="17" width="7" height="1" fill="#369F49"/><rect x="12" y="19" width="1" height="1" fill="#369F49"/><rect x="6" y="8" width="1" height="2" class="noggles"/><rect x="8" y="6" width="1" height="4" class="noggles"/><rect x="13" y="6" width="1" height="4" class="noggles"/><rect x="16" y="6" width="1" height="4" class="noggles"/><rect x="11" y="6" width="1" height="4" class="noggles"/><rect x="7" y="8" width="1" height="1" class="noggles"/><rect x="12" y="8" width="1" height="1" class="noggles"/><rect x="9" y="6" width="2" height="1" class="noggles"/><rect x="14" y="6" width="2" height="1" class="noggles"/><rect x="14" y="7" width="1" height="3" class="noggles"/><rect x="9" y="7" width="1" height="3" class="noggles"/><rect x="10" y="8" width="1" height="2" class="noggles"/><rect x="15" y="8" width="1" height="2" class="noggles"/><rect x="15" y="7" width="1" height="1" fill="white"/><rect x="10" y="7" width="1" height="1" fill="white"/></svg>