<svg width="24" height="24" viewBox="0 0 24 24" fill="none" xmlns="http://www.w3.org/2000/svg"><style type="text/css">.noggles{fill:#513340;}.tintable{fill:#000000;}</style><rect x="0" y="0" width="24" height="24" fill="#3e5d25"/><rect x="6" y="1" width="1" height="1" class="tintable"/><rect x="8" y="13" width="1" height="1" class="tintable"/><rect x="8" y="15" width="1" height="2" class="tintable"/><rect x="10" y="15" width="1" height="2" class="tintable"/><rect x="14" y="15" width="1" height="2" class="tintable"/><rect x="16" y="15" width="1" height="2" class="tintable"/><rect x="15" y="15" width="1" height="2" fill="#F38B7C"/><rect x="13" y="15" width="1" height="2" fill="#F38B7C"/><rect x="11" y="15" width="1" height="2" fill="#F38B7C"/><rect x="9" y="15" width="1" height="2" fill="#F38B7C"/><rect x="10" y="17" width="2" height="1" fill="#F38B7C"/><rect x="11" y="18" width="3" height="1" fill="#F38B7C"/><rect x="13" y="17" width="2" height="1" fill="#F38B7C"/><rect x="12" y="15" width="1" height="3" class="tintable"/><rect x="16" y="13" width="1" height="1" class="tintable"/><rect x="9" y="17" width="1" height="1" class="tintable"/><rect x="8" y="17" width="1" height="1" fill="#CB7300"/><rect x="9" y="18" width="1" height="1" fill="#CB7300"/><rect x="10" y="19" width="1" height="1" fill="#CB7300"/><rect x="15" y="18" width="1" height="1" fill="#CB7300"/><rect x="14" y="19" width="1" height="1" fill="#CB7300"/><rect x="16" y="17" width="1" height="1" fill="#CB7300"/><rect x="15" y="17" width="1" height="1" class="tintable"/><rect x="16" y="18" width="1" height="1" class="tintable"/><rect x="8" y="18" width="1" height="1" class="tintable"/><rect x="15" y="19" width="2" height="1" class="tintable"/><rect x="8" y="19" width="2" height="1" class="tintable"/><rect x="8" y="11" width="1" height="1" class="tintable"/><rect x="8" y="12" width="9" height="1" fill="#F38B7C"/><rect x="8" y="14" width="9" height="1" fill="#F38B7C"/><rect x="9" y="13" width="7" height="1" fill="#F38B7C"/><rect x="9" y="11" width="1" height="1" fill="black"/><rect x="11" y="11" width="1" height="1" fill="black"/><rect x="13" y="11" width="1" height="1" fill="black"/><rect x="15" y="11" width="1" height="1" fill="black"/><rect x="14" y="11" width="1" height="1" fill="white"/><rect x="14" y="18" width="1" height="1" fill="white"/><rect x="12" y="20" width="1" height="4" fill="white"/><rect x="11" y="20" width="1" height="4" fill="#CB7300"/><rect x="13" y="20" width="1" height="4" fill="#CB7300"/><rect x="14" y="20" width="3" height="4" class="tintable"/><rect x="8" y="20" width="3" height="4" class="tintable"/><rect x="11" y="19" width="3" height="1" fill="white"/><rect x="10" y="11" width="1" height="1" fill="white"/><rect x="10" y="18" width="1" height="1" fill="white"/><rect x="16" y="11" width="1" height="1" class="tintable"/><rect x="9" y="4" width="1" height="1" class="tintable"/><rect x="8" y="4" width="1" height="1" fill="#F38B7C"/><rect x="8" y="9" width="4" height="2" fill="#F38B7C"/><rect x="13" y="9" width="4" height="2" fill="#F38B7C"/><rect x="10" y="4" width="1" height="1" fill="#F38B7C"/><rect x="12" y="4" width="1" height="1" fill="#F38B7C"/><rect x="14" y="4" width="1" height="1" fill="#F38B7C"/><rect x="16" y="4" width="1" height="1" fill="#F38B7C"/><rect x="12" y="9" width="1" height="3" fill="#FD5442"/><rect x="8" y="5" width="9" height="4" fill="#F38B7C"/><rect x="7" y="7" width="1" height="3" class="tintable"/><rect x="17" y="7" width="1" height="3" class="tintable"/><rect x="11" y="4" width="1" height="1" class="tintable"/><rect x="13" y="4" width="1" height="1" class="tintable"/><rect x="15" y="4" width="1" height="1" class="tintable"/><rect x="6" y="4" width="2" height="1" class="tintable"/><rect x="5" y="5" width="3" height="1" class="tintable"/><rect x="6" y="6" width="2" height="1" class="tintable"/><rect x="17" y="6" width="2" height="1" class="tintable"/><rect x="17" y="5" width="3" height="1" class="tintable"/><rect x="17" y="4" width="2" height="1" class="tintable"/><rect x="7" y="2" width="11" height="1" class="tintable"/><rect x="5" y="3" width="15" height="1" class="tintable"/><rect x="8" y="1" width="1" height="1" class="tintable"/><rect x="10" y="1" width="1" height="1" class="tintable"/><rect x="12" y="1" width="1" height="1" class="tintable"/><rect x="14" y="1" width="1" height="1" class="tintable"/><rect x="16" y="1" width="1" height="1" class="tintable"/><rect x="18" y="1" width="1" height="1" class="tintable"/><rect x="2" y="10" width="6" height="1" fill="black"/><rect x="17" y="10" width="5" height="1" fill="black"/><rect x="3" y="11" width="5" height="1" fill="black"/><rect x="17" y="11" width="4" height="1" fill="black"/><rect x="4" y="12" width="4" height="1" fill="black"/><rect x="17" y="12" width="3" height="1" fill="black"/><rect x="5" y="13" width="3" height="1" fill="black"/><rect x="17" y="13" width="2" height="1" fill="black"/><rect x="6" y="14" width="2" height="1" fill="black"/><rect x="7" y="15" width="1" height="9" fill="black"/><rect x="17" y="14" width="1" height="10" fill="black"/><rect x="18" y="14" width="6" height="10" fill="#06534A"/><rect y="14" width="6" height="10" fill="#06534A"/><rect x="6" y="15" width="1" height="9" fill="#06534A"/><rect x="3" y="8" width="1" height="3" class="noggles"/><rect x="4" y="8" width="2" height="1" class="noggles"/><rect x="6" y="6" width="1" height="6" class="noggles"/><rect x="7" y="11" width="4" height="1" class="noggles"/><rect x="7" y="6" width="4" height="1" class="noggles"/><rect x="11" y="6" width="1" height="6" class="noggles"/><rect x="12" y="8" width="1" height="1" class="noggles"/><rect x="13" y="6" width="1" height="6" class="noggles"/><rect x="18" y="6" width="1" height="6" class="noggles"/><rect x="14" y="6" width="4" height="1" class="noggles"/><rect x="14" y="11" width="4" height="1" class="noggles"/><rect x="16" y="7" width="2" height="4" fill="black"/><rect x="9" y="7" width="2" height="4" fill="black"/><rect x="14" y="7" width="2" height="4" fill="white"/><rect x="7" y="7" width="2" height="4" fill="white"/></svg>