<svg width="24" height="24" viewBox="0 0 24 24" fill="none" xmlns="http://www.w3.org/2000/svg"><style type="text/css">.noggles{fill:#513340;}.tintable{fill:#000000;}</style><rect x="0" y="0" width="24" height="24" fill="#3e5d25"/><rect y="14" width="24" height="10" class="tintable"/><rect x="4" y="3" width="1" height="1" class="tintable"/><rect x="5" y="2" width="5" height="1" class="tintable"/><rect x="6" y="3" width="6" height="1" class="tintable"/><rect x="7" y="4" width="7" height="1" class="tintable"/><rect x="6" y="5" width="9" height="1" fill="white"/><rect x="6" y="6" width="9" height="1" fill="#F38B7C"/><rect x="7" y="7" width="8" height="2" fill="#F38B7C"/><rect x="5" y="7" width="1" height="2" fill="#F38B7C"/><rect x="6" y="7" width="1" height="2" fill="white"/><rect x="4" y="4" width="1" height="1" fill="white"/><rect x="5" y="9" width="15" height="5" fill="white"/><rect x="6" y="14" width="14" height="1" fill="white"/><rect x="7" y="15" width="13" height="1" fill="white"/><rect x="8" y="16" width="12" height="1" fill="white"/><rect x="9" y="17" width="11" height="1" fill="white"/><rect x="10" y="18" width="10" height="1" fill="white"/><rect x="11" y="19" width="9" height="1" fill="white"/><rect x="12" y="20" width="8" height="1" fill="white"/><rect x="13" y="21" width="7" height="1" fill="white"/><rect x="14" y="22" width="6" height="1" fill="white"/><rect x="15" y="23" width="5" height="1" fill="white"/><rect x="8" y="10" width="11" height="1" fill="#FF0E0E"/><rect x="6" y="8" width="1" height="2" class="noggles"/><rect x="8" y="6" width="1" height="4" class="noggles"/><rect x="13" y="6" width="1" height="4" class="noggles"/><rect x="16" y="6" width="1" height="4" class="noggles"/><rect x="11" y="6" width="1" height="4" class="noggles"/><rect x="7" y="8" width="1" height="1" class="noggles"/><rect x="12" y="8" width="1" height="1" class="noggles"/><rect x="9" y="6" width="2" height="1" class="noggles"/><rect x="14" y="6" width="2" height="1" class="noggles"/><rect x="14" y="9" width="2" height="1" class="noggles"/><rect x="9" y="9" width="2" height="1" class="noggles"/><rect x="15" y="7" width="1" height="2" fill="black"/><rect x="10" y="7" width="1" height="2" fill="black"/><rect x="14" y="7" width="1" height="2" fill="white"/><rect x="9" y="7" width="1" height="2" fill="white"/></svg>