<svg width="24" height="24" viewBox="0 0 24 24" fill="none" xmlns="http://www.w3.org/2000/svg"><style type="text/css">.noggles{fill:#513340;}.tintable{fill:#000000;}</style><rect x="0" y="0" width="24" height="24" fill="#3e5d25"/><rect x="8" y="2" width="7" height="1" class="tintable"/><rect x="6" y="3" width="11" height="1" class="tintable"/><rect x="5" y="4" width="13" height="1" class="tintable"/><rect x="5" y="5" width="2" height="1" class="tintable"/><rect x="8" y="5" width="1" height="1" class="tintable"/><rect x="10" y="5" width="1" height="1" class="tintable"/><rect x="12" y="5" width="1" height="1" class="tintable"/><rect x="14" y="5" width="1" height="1" class="tintable"/><rect x="16" y="5" width="2" height="1" class="tintable"/><rect x="4" y="6" width="2" height="3" class="tintable"/><rect x="17" y="6" width="2" height="3" class="tintable"/><rect x="3" y="9" width="2" height="1" class="tintable"/><rect x="18" y="9" width="2" height="1" class="tintable"/><rect x="2" y="10" width="19" height="1" class="tintable"/><rect x="3" y="11" width="1" height="1" class="tintable"/><rect x="19" y="11" width="1" height="1" class="tintable"/><rect x="2" y="12" width="2" height="1" class="tintable"/><rect x="19" y="12" width="2" height="1" class="tintable"/><rect x="3" y="13" width="1" height="1" class="tintable"/><rect x="7" y="14" width="1" height="1" class="tintable"/><rect x="9" y="14" width="1" height="1" class="tintable"/><rect x="11" y="14" width="1" height="1" class="tintable"/><rect x="13" y="14" width="1" height="1" class="tintable"/><rect x="15" y="14" width="1" height="1" class="tintable"/><rect x="17" y="14" width="7" height="1" class="tintable"/><rect x="19" y="13" width="1" height="1" class="tintable"/><rect y="14" width="6" height="1" class="tintable"/><rect y="15" width="24" height="3" class="tintable"/><rect y="18" width="3" height="6" class="tintable"/><rect x="3" y="20" width="1" height="4" class="tintable"/><rect x="4" y="18" width="3" height="6" class="tintable"/><rect x="7" y="21" width="1" height="3" class="tintable"/><rect x="7" y="18" width="4" height="1" class="tintable"/><rect x="8" y="19" width="3" height="5" class="tintable"/><rect x="11" y="20" width="1" height="4" class="tintable"/><rect x="12" y="18" width="3" height="6" class="tintable"/><rect x="15" y="18" width="4" height="1" class="tintable"/><rect x="16" y="19" width="3" height="1" class="tintable"/><rect x="16" y="20" width="8" height="1" class="tintable"/><rect x="20" y="18" width="4" height="2" class="tintable"/><rect x="15" y="21" width="9" height="3" class="tintable"/><rect x="7" y="5" width="1" height="1" fill="#2A46FF"/><rect x="18" y="12" width="1" height="1" fill="#2A46FF"/><rect x="16" y="14" width="1" height="1" fill="#2A46FF"/><rect x="14" y="14" width="1" height="1" fill="#2A46FF"/><rect x="12" y="14" width="1" height="1" fill="#2A46FF"/><rect x="10" y="14" width="1" height="1" fill="#2A46FF"/><rect x="8" y="14" width="1" height="1" fill="#2A46FF"/><rect x="6" y="14" width="1" height="1" fill="#2A46FF"/><rect x="5" y="12" width="1" height="1" fill="white"/><rect x="7" y="12" width="1" height="1" fill="white"/><rect x="9" y="12" width="1" height="1" fill="white"/><rect x="11" y="12" width="1" height="1" fill="white"/><rect x="13" y="12" width="1" height="1" fill="white"/><rect x="15" y="12" width="1" height="1" fill="white"/><rect x="17" y="12" width="1" height="1" fill="white"/><rect x="6" y="12" width="1" height="1" fill="black"/><rect x="8" y="12" width="1" height="1" fill="black"/><rect x="10" y="12" width="1" height="1" fill="black"/><rect x="12" y="12" width="1" height="1" fill="black"/><rect x="14" y="12" width="1" height="1" fill="black"/><rect x="16" y="12" width="1" height="1" fill="black"/><rect x="3" y="18" width="1" height="2" fill="#2A46FF"/><rect x="7" y="19" width="1" height="2" fill="#2A46FF"/><rect x="11" y="18" width="1" height="2" fill="#2A46FF"/><rect x="15" y="19" width="1" height="2" fill="#2A46FF"/><rect x="19" y="18" width="1" height="2" fill="#2A46FF"/><rect x="4" y="12" width="1" height="1" fill="#2A46FF"/><rect x="5" y="9" width="13" height="1" fill="#2A46FF"/><rect x="4" y="11" width="15" height="1" fill="#2A46FF"/><rect x="4" y="13" width="15" height="1" fill="#2A46FF"/><rect x="9" y="5" width="1" height="1" fill="#2A46FF"/><rect x="11" y="5" width="1" height="1" fill="#2A46FF"/><rect x="13" y="5" width="1" height="1" fill="#2A46FF"/><rect x="15" y="5" width="1" height="1" fill="#2A46FF"/><rect x="6" y="6" width="11" height="3" fill="#2A46FF"/><rect x="3" y="8" width="1" height="3" class="noggles"/><rect x="4" y="8" width="2" height="1" class="noggles"/><rect x="6" y="6" width="1" height="6" class="noggles"/><rect x="7" y="11" width="4" height="1" class="noggles"/><rect x="7" y="6" width="4" height="1" class="noggles"/><rect x="11" y="6" width="1" height="6" class="noggles"/><rect x="12" y="8" width="1" height="1" class="noggles"/><rect x="13" y="6" width="1" height="6" class="noggles"/><rect x="18" y="6" width="1" height="6" class="noggles"/><rect x="14" y="6" width="4" height="1" class="noggles"/><rect x="14" y="11" width="4" height="1" class="noggles"/><rect x="16" y="7" width="2" height="4" fill="black"/><rect x="9" y="7" width="2" height="4" fill="black"/><rect x="14" y="7" width="2" height="4" fill="white"/><rect x="7" y="7" width="2" height="4" fill="white"/></svg>