<svg width="24" height="24" viewBox="0 0 24 24" fill="none" xmlns="http://www.w3.org/2000/svg"><style type="text/css">.noggles{fill:#513340;}.tintable{fill:#000000;}</style><rect x="0" y="0" width="24" height="24" fill="#3e5d25"/><rect x="9" y="11" width="5" height="3" fill="black"/><rect x="12" y="21" width="4" height="1" fill="black"/><rect x="7" y="21" width="4" height="1" fill="black"/><rect x="7" y="20" width="1" height="1" fill="black"/><rect x="15" y="20" width="1" height="1" fill="black"/><rect x="12" y="14" width="2" height="7" fill="#CB7300"/><rect x="9" y="14" width="2" height="7" fill="#CB7300"/><rect x="9" y="6" width="5" height="5" class="tintable"/><rect x="8" y="3" width="1" height="1" fill="#FF0E0E"/><rect x="9" y="2" width="1" height="1" class="tintable"/><rect x="9" y="14" width="1" height="1" class="tintable"/><rect x="13" y="14" width="1" height="1" class="tintable"/><rect x="7" y="9" width="1" height="7" class="tintable"/><rect x="15" y="9" width="1" height="7" class="tintable"/><rect x="9" y="3" width="2" height="1" class="tintable"/><rect x="9" y="5" width="4" height="1" class="tintable"/><rect x="9" y="6" width="5" height="1" fill="white"/><rect x="9" y="7" width="2" height="1" fill="white"/><rect x="9" y="8" width="1" height="1" fill="white"/><rect x="7" y="16" width="1" height="1" fill="white"/><rect width="1" height="1" transform="matrix(1 0 0 -1 15 17)" fill="white"/><rect width="1" height="1" transform="matrix(1 0 0 -1 15 18)" fill="#F38B7C"/><rect width="1" height="1" transform="matrix(1 0 0 -1 7 18)" fill="#F38B7C"/><rect x="13" y="8" width="1" height="1" fill="white"/><rect x="12" y="7" width="2" height="1" fill="white"/><rect x="9" y="4" width="3" height="1" fill="#F0C14D"/><rect x="10" y="11" width="3" height="1" fill="#F0C14D"/><rect x="10" y="13" width="3" height="1" fill="#F0C14D"/><rect x="10" y="12" width="1" height="1" fill="#F0C14D"/><rect x="12" y="12" width="1" height="1" fill="#F0C14D"/><rect x="3" y="8" width="1" height="3" class="noggles"/><rect x="4" y="8" width="2" height="1" class="noggles"/><rect x="6" y="6" width="1" height="6" class="noggles"/><rect x="7" y="11" width="4" height="1" class="noggles"/><rect x="7" y="6" width="4" height="1" class="noggles"/><rect x="11" y="6" width="1" height="6" class="noggles"/><rect x="12" y="8" width="1" height="1" class="noggles"/><rect x="13" y="6" width="1" height="6" class="noggles"/><rect x="18" y="6" width="1" height="6" class="noggles"/><rect x="14" y="6" width="4" height="1" class="noggles"/><rect x="14" y="11" width="4" height="1" class="noggles"/><rect x="16" y="7" width="2" height="4" fill="black"/><rect x="9" y="7" width="2" height="4" fill="black"/><rect x="14" y="7" width="2" height="4" fill="white"/><rect x="7" y="7" width="2" height="4" fill="white"/></svg>