<svg width="24" height="24" viewBox="0 0 24 24" fill="none" xmlns="http://www.w3.org/2000/svg"><style type="text/css">.noggles{fill:#513340;}.tintable{fill:#000000;}</style><rect x="0" y="0" width="24" height="24" fill="#3e5d25"/><rect x="11" y="1" width="1" height="1" fill="#CB7300"/><rect x="10" y="6" width="3" height="2" fill="white"/><rect x="9" y="2" width="5" height="4" fill="#08030D"/><rect x="11" y="3" width="1" height="1" class="tintable"/><rect x="10" y="12" width="1" height="1" fill="black"/><rect x="12" y="12" width="1" height="1" fill="black"/><rect x="14" y="14" width="1" height="1" fill="#2A46FF"/><rect x="13" y="17" width="1" height="1" fill="#2A46FF"/><rect x="9" y="17" width="1" height="1" fill="#2A46FF"/><rect x="9" y="19" width="1" height="1" fill="#2A46FF"/><rect x="13" y="19" width="1" height="1" fill="#2A46FF"/><rect x="12" y="21" width="2" height="1" fill="black"/><rect x="9" y="21" width="2" height="1" fill="black"/><rect x="14" y="15" width="1" height="1" fill="#F38B7C"/><rect x="8" y="14" width="1" height="1" fill="#2A46FF"/><rect x="10" y="14" width="1" height="2" fill="#2A46FF"/><rect x="10" y="16" width="1" height="5" fill="black"/><rect x="12" y="16" width="1" height="5" fill="black"/><rect x="12" y="14" width="1" height="2" fill="#2A46FF"/><rect x="8" y="15" width="1" height="1" fill="#F38B7C"/><rect x="11" y="8" width="1" height="3" fill="white"/><rect x="10" y="8" width="1" height="3" class="tintable"/><rect x="12" y="8" width="1" height="3" class="tintable"/><rect x="14" y="8" width="1" height="6" class="tintable"/><rect x="8" y="8" width="1" height="6" class="tintable"/><rect width="3" height="1" transform="matrix(1 0 0 -1 10 12)" class="tintable"/><rect width="3" height="1" transform="matrix(1 0 0 -1 10 14)" class="tintable"/><rect x="11" y="12" width="1" height="1" fill="#F0C14D"/><rect x="3" y="8" width="1" height="3" class="noggles"/><rect x="4" y="8" width="2" height="1" class="noggles"/><rect x="6" y="6" width="1" height="6" class="noggles"/><rect x="7" y="11" width="4" height="1" class="noggles"/><rect x="7" y="6" width="4" height="1" class="noggles"/><rect x="11" y="6" width="1" height="6" class="noggles"/><rect x="12" y="8" width="1" height="1" class="noggles"/><rect x="13" y="6" width="1" height="6" class="noggles"/><rect x="18" y="6" width="1" height="6" class="noggles"/><rect x="14" y="6" width="4" height="1" class="noggles"/><rect x="14" y="11" width="4" height="1" class="noggles"/><rect x="16" y="7" width="2" height="4" fill="black"/><rect x="9" y="7" width="2" height="4" fill="black"/><rect x="14" y="7" width="2" height="4" fill="white"/><rect x="7" y="7" width="2" height="4" fill="white"/></svg>