<svg width="24" height="24" viewBox="0 0 24 24" fill="none" xmlns="http://www.w3.org/2000/svg"><style type="text/css">.noggles{fill:#513340;}.tintable{fill:#000000;}</style><rect x="0" y="0" width="24" height="24" fill="#3e5d25"/><rect x="6" y="3" width="10" height="9" fill="#F38B7C"/><rect x="5" y="2" width="1" height="1" fill="#FF0E0E"/><rect x="16" y="2" width="1" height="1" fill="#FF0E0E"/><rect x="13" y="1" width="1" height="1" fill="#F0C14D"/><rect x="9" y="1" width="1" height="1" fill="#F0C14D"/><rect x="6" y="3" width="3" height="1" fill="#F0C14D"/><rect x="10" y="3" width="1" height="1" fill="#F0C14D"/><rect x="9" y="4" width="1" height="1" fill="#F0C14D"/><rect x="6" y="4" width="1" height="1" fill="#F0C14D"/><rect x="4" y="7" width="1" height="1" fill="#F0C14D"/><rect x="5" y="5" width="1" height="2" fill="#F0C14D"/><rect x="11" y="4" width="1" height="1" fill="#F0C14D"/><rect x="18" y="3" width="1" height="1" fill="#F0C14D"/><rect x="15" y="4" width="3" height="1" fill="#F0C14D"/><rect x="12" y="3" width="4" height="1" fill="#F0C14D"/><rect x="7" y="2" width="8" height="1" fill="#F0C14D"/><rect x="6" y="1" width="1" height="2" fill="#FF0E0E"/><rect x="15" y="1" width="1" height="2" fill="#FF0E0E"/><rect x="7" y="12" width="8" height="1" fill="#F38B7C"/><rect x="9" y="13" width="4" height="1" fill="#F38B7C"/><rect x="10" y="14" width="2" height="1" fill="#F38B7C"/><rect x="10" y="15" width="2" height="1" class="tintable"/><rect x="9" y="16" width="4" height="5" class="tintable"/><rect x="7" y="13" width="2" height="1" fill="#F0C14D"/><rect x="13" y="13" width="2" height="1" fill="#F0C14D"/><rect x="13" y="14" width="1" height="1" fill="#F0C14D"/><rect x="15" y="14" width="1" height="1" fill="#F0C14D"/><rect x="8" y="14" width="1" height="1" fill="#F0C14D"/><rect x="6" y="14" width="1" height="1" fill="#F0C14D"/><rect x="12" y="21" width="1" height="1" class="tintable"/><rect x="10" y="21" width="1" height="1" class="tintable"/><rect x="8" y="21" width="1" height="1" class="tintable"/><rect x="7" y="18" width="1" height="1" fill="#F38B7C"/><rect x="14" y="18" width="1" height="1" fill="#F38B7C"/><rect x="17" y="14" width="1" height="1" fill="black"/><rect x="18" y="16" width="1" height="1" fill="black"/><rect x="18" y="13" width="1" height="1" fill="black"/><rect x="17" y="17" width="3" height="1" fill="#FF0E0E"/><rect x="17" y="21" width="3" height="1" fill="#FF0E0E"/><rect x="16" y="18" width="5" height="3" fill="#FF0E0E"/><rect x="19" y="14" width="1" height="2" fill="black"/><rect x="7" y="16" width="1" height="2" class="tintable"/><rect x="14" y="16" width="1" height="2" class="tintable"/><rect x="6" y="8" width="1" height="2" class="noggles"/><rect x="8" y="6" width="1" height="4" class="noggles"/><rect x="13" y="6" width="1" height="4" class="noggles"/><rect x="16" y="6" width="1" height="4" class="noggles"/><rect x="11" y="6" width="1" height="4" class="noggles"/><rect x="7" y="8" width="1" height="1" class="noggles"/><rect x="12" y="8" width="1" height="1" class="noggles"/><rect x="9" y="6" width="2" height="1" class="noggles"/><rect x="14" y="6" width="2" height="1" class="noggles"/><rect x="14" y="9" width="2" height="1" class="noggles"/><rect x="9" y="9" width="2" height="1" class="noggles"/><rect x="15" y="7" width="1" height="2" fill="black"/><rect x="10" y="7" width="1" height="2" fill="black"/><rect x="14" y="7" width="1" height="2" fill="white"/><rect x="9" y="7" width="1" height="2" fill="white"/></svg>