<svg width="24" height="24" viewBox="0 0 24 24" fill="none" xmlns="http://www.w3.org/2000/svg"><style type="text/css">.noggles{fill:#513340;}.tintable{fill:#000000;}</style><rect x="0" y="0" width="24" height="24" fill="#3e5d25"/><rect x="8" y="4" width="7" height="2" class="tintable"/><rect x="7" y="9" width="9" height="2" fill="#FF0E0E"/><rect x="7" y="14" width="9" height="5" fill="#FF0E0E"/><rect x="10" y="2" width="3" height="1" class="tintable"/><rect x="7" y="3" width="1" height="1" class="tintable"/><rect x="7" y="6" width="1" height="1" class="tintable"/><rect x="9" y="6" width="1" height="1" class="tintable"/><rect x="13" y="6" width="1" height="1" class="tintable"/><rect x="11" y="4" width="1" height="1" fill="#F38B7C"/><rect x="10" y="5" width="3" height="4" fill="#F38B7C"/><rect x="15" y="3" width="1" height="1" class="tintable"/><rect x="9" y="3" width="5" height="1" class="tintable"/><rect x="8" y="11" width="7" height="1" fill="#FF0E0E"/><rect x="8" y="13" width="7" height="1" fill="#FF0E0E"/><rect x="16" y="11" width="1" height="2" fill="#FF0E0E"/><rect x="6" y="11" width="1" height="2" fill="#FF0E0E"/><rect x="5" y="13" width="1" height="1" fill="white"/><rect x="7" y="19" width="9" height="1" fill="white"/><rect x="17" y="13" width="1" height="1" fill="white"/><rect x="11" y="12" width="1" height="1" fill="white"/><rect x="12" y="12" width="2" height="1" fill="black"/><rect x="9" y="12" width="2" height="1" fill="black"/><rect x="9" y="20" width="2" height="1" fill="black"/><rect x="12" y="20" width="2" height="1" fill="black"/><rect x="12" y="21" width="3" height="1" fill="black"/><rect x="8" y="21" width="3" height="1" fill="black"/><rect x="5" y="14" width="1" height="1" fill="#F38B7C"/><rect x="17" y="14" width="1" height="1" fill="#F38B7C"/><rect x="6" y="8" width="1" height="2" class="noggles"/><rect x="8" y="6" width="1" height="4" class="noggles"/><rect x="13" y="6" width="1" height="4" class="noggles"/><rect x="16" y="6" width="1" height="4" class="noggles"/><rect x="11" y="6" width="1" height="4" class="noggles"/><rect x="7" y="8" width="1" height="1" class="noggles"/><rect x="12" y="8" width="1" height="1" class="noggles"/><rect x="9" y="6" width="2" height="1" class="noggles"/><rect x="14" y="6" width="2" height="1" class="noggles"/><rect x="14" y="7" width="1" height="3" class="noggles"/><rect x="9" y="7" width="1" height="3" class="noggles"/><rect x="10" y="8" width="1" height="2" class="noggles"/><rect x="15" y="8" width="1" height="2" class="noggles"/><rect x="15" y="7" width="1" height="1" fill="white"/><rect x="10" y="7" width="1" height="1" fill="white"/></svg>