<svg width="24" height="24" viewBox="0 0 24 24" fill="none" xmlns="http://www.w3.org/2000/svg"><style type="text/css">.noggles{fill:#513340;}.tintable{fill:#000000;}</style><rect x="0" y="0" width="24" height="24" fill="#3e5d25"/>return <rect x="11" y="1" width="1" height="1" fill="#FF0E0E"/><rect x="9" y="3" width="1" height="2" fill="#FF0E0E"/><rect x="10" y="2" width="3" height="1" fill="#FF0E0E"/><rect x="10" y="4" width="3" height="1" fill="#F38B7C"/><rect x="10" y="6" width="3" height="1" fill="#F38B7C"/><rect x="10" y="3" width="3" height="1" fill="white"/><rect x="8" y="5" width="1" height="1" fill="white"/><rect x="11" y="12" width="1" height="1" fill="white"/><rect x="12" y="5" width="1" height="1" fill="#F38B7C"/><rect x="10" y="5" width="1" height="1" fill="#F38B7C"/><rect x="11" y="5" width="1" height="1" fill="black"/><rect x="7" y="7" width="1" height="1" fill="#36262D"/><rect x="9" y="8" width="1" height="1" fill="#36262D"/><rect x="15" y="7" width="1" height="1" fill="#36262D"/><rect x="15" y="9" width="1" height="1" fill="#36262D"/><rect x="15" y="13" width="1" height="1" fill="#36262D"/><rect x="15" y="11" width="1" height="1" fill="#36262D"/><rect x="13" y="8" width="1" height="1" fill="#36262D"/><rect x="9" y="8" width="1" height="1" fill="#36262D"/><rect x="9" y="10" width="1" height="1" fill="#36262D"/><rect x="9" y="12" width="1" height="1" fill="#36262D"/><rect x="9" y="14" width="1" height="1" fill="#36262D"/><rect x="7" y="9" width="1" height="1" fill="#36262D"/><rect x="7" y="9" width="1" height="1" fill="#36262D"/><rect x="7" y="13" width="1" height="1" fill="#36262D"/><rect x="13" y="10" width="1" height="1" fill="#36262D"/><rect x="13" y="12" width="1" height="1" fill="#36262D"/><rect x="13" y="14" width="1" height="1" fill="#36262D"/><rect x="9" y="7" width="1" height="1" fill="#453F41"/><rect x="7" y="8" width="1" height="1" fill="#453F41"/><rect x="13" y="7" width="1" height="1" fill="#453F41"/><rect x="9" y="7" width="1" height="1" fill="#453F41"/><rect x="9" y="9" width="1" height="1" fill="#453F41"/><rect x="9" y="11" width="1" height="1" fill="#453F41"/><rect x="9" y="13" width="1" height="1" fill="#453F41"/><rect x="7" y="10" width="1" height="1" fill="#453F41"/><rect x="7" y="14" width="1" height="1" fill="#453F41"/><rect x="7" y="15" width="1" height="1" fill="#F38B7C"/><rect x="15" y="15" width="1" height="1" fill="#F38B7C"/><rect x="7" y="12" width="1" height="1" fill="#453F41"/><rect x="13" y="9" width="1" height="1" fill="#453F41"/><rect x="13" y="11" width="1" height="1" fill="#453F41"/><rect x="13" y="13" width="1" height="1" fill="#453F41"/><rect x="15" y="8" width="1" height="1" fill="#453F41"/><rect x="15" y="10" width="1" height="1" fill="#453F41"/><rect x="15" y="12" width="1" height="1" fill="#453F41"/><rect x="10" y="13" width="3" height="1" fill="black"/><rect x="10" y="14" width="1" height="1" fill="black"/><rect x="12" y="14" width="1" height="1" fill="black"/><rect x="12" y="15" width="2" height="4" fill="black"/><rect x="9" y="16" width="2" height="4" fill="black"/><rect x="10" y="20" width="1" height="2" fill="black"/><rect x="9" y="21" width="1" height="1" fill="black"/><rect x="12" y="20" width="1" height="1" fill="black"/><rect x="12" y="21" width="2" height="1" fill="black"/><rect x="14" y="11" width="1" height="1" fill="#06534A"/><rect x="15" y="14" width="1" height="1" fill="#06534A"/><rect x="11" y="15" width="1" height="1" fill="#06534A"/><rect x="14" y="16" width="1" height="1" fill="#06534A"/><rect x="15" y="17" width="1" height="1" fill="#06534A"/><rect x="14" y="18" width="1" height="1" fill="#06534A"/><rect x="11" y="18" width="1" height="1" fill="#06534A"/><rect x="8" y="17" width="1" height="1" fill="#06534A"/><rect x="7" y="18" width="1" height="1" fill="#06534A"/><rect x="6" y="19" width="1" height="1" fill="#06534A"/><rect x="7" y="20" width="1" height="1" fill="#06534A"/><rect x="8" y="19" width="1" height="1" fill="#FF0E0E"/><rect x="16" y="18" width="1" height="1" fill="#FF0E0E"/><rect x="17" y="11" width="1" height="1" fill="#FF0E0E"/><rect x="5" y="13" width="1" height="1" fill="#FF0E0E"/><rect x="5" y="11" width="1" height="1" fill="#2A46FF"/><rect x="8" y="12" width="1" height="1" fill="#2A46FF"/><rect x="17" y="14" width="1" height="1" fill="#2A46FF"/><rect x="14" y="15" width="1" height="1" fill="#2A46FF"/><rect x="6" y="17" width="1" height="1" fill="#2A46FF"/><rect x="11" y="20" width="1" height="1" fill="#2A46FF"/><rect x="12" y="19" width="2" height="1" fill="#06534A"/><rect x="8" y="10" width="1" height="1" fill="#06534A"/><rect x="7" y="11" width="1" height="1" fill="#06534A"/><rect x="6" y="12" width="1" height="1" fill="#06534A"/><rect x="8" y="13" width="1" height="1" fill="#06534A"/><rect x="16" y="12" width="1" height="2" fill="#06534A"/><rect x="10" y="7" width="1" height="6" fill="white"/><rect x="12" y="7" width="1" height="6" fill="white"/><rect x="11" y="7" width="1" height="5" class="tintable"/><rect x="6" y="8" width="1" height="2" class="noggles"/><rect x="8" y="6" width="1" height="4" class="noggles"/><rect x="13" y="6" width="1" height="4" class="noggles"/><rect x="16" y="6" width="1" height="4" class="noggles"/><rect x="11" y="6" width="1" height="4" class="noggles"/><rect x="7" y="8" width="1" height="1" class="noggles"/><rect x="12" y="8" width="1" height="1" class="noggles"/><rect x="9" y="6" width="2" height="1" class="noggles"/><rect x="14" y="6" width="2" height="1" class="noggles"/><rect x="14" y="7" width="1" height="3" class="noggles"/><rect x="9" y="7" width="1" height="3" class="noggles"/><rect x="10" y="8" width="1" height="2" class="noggles"/><rect x="15" y="8" width="1" height="2" class="noggles"/><rect x="15" y="7" width="1" height="1" fill="white"/><rect x="10" y="7" width="1" height="1" fill="white"/></svg>