<svg width="24" height="24" viewBox="0 0 24 24" fill="none" xmlns="http://www.w3.org/2000/svg"><style type="text/css">.noggles{fill:#513340;}.tintable{fill:#000000;}</style><rect x="0" y="0" width="24" height="24" fill="#3e5d25"/><rect x="9" y="1" width="7" height="2" class="tintable"/><rect x="10" y="3" width="6" height="1" fill="black"/><rect x="11" y="4" width="5" height="1" fill="black"/><rect x="9" y="3" width="1" height="1" fill="#F38B7C"/><rect x="8" y="4" width="1" height="1" fill="#F38B7C"/><rect x="5" y="4" width="1" height="1" class="tintable"/><rect x="19" y="4" width="1" height="1" class="tintable"/><rect x="6" y="5" width="13" height="1" class="tintable"/><rect x="7" y="6" width="11" height="1" fill="white"/><rect x="7" y="13" width="11" height="1" fill="white"/><rect x="8" y="14" width="9" height="1" fill="white"/><rect x="9" y="15" width="7" height="1" fill="white"/><rect y="14" width="7" height="10" fill="white"/><rect x="7" y="16" width="11" height="8" fill="white"/><rect x="18" y="14" width="6" height="10" fill="white"/><rect x="10" y="4" width="1" height="1" fill="#F38B7C"/><rect x="9" y="4" width="1" height="1" fill="#2A46FF"/><rect x="6" y="7" width="13" height="6" fill="white"/><rect x="8" y="11" width="9" height="1" fill="black"/><rect x="11" y="9" width="3" height="3" fill="#FD5442"/><rect x="12" y="17" width="1" height="1" fill="black"/><rect x="17" y="15" width="1" height="1" fill="white"/><rect x="7" y="15" width="1" height="1" fill="white"/><rect x="12" y="20" width="1" height="1" fill="black"/><rect x="6" y="8" width="1" height="2" class="noggles"/><rect x="8" y="6" width="1" height="4" class="noggles"/><rect x="13" y="6" width="1" height="4" class="noggles"/><rect x="16" y="6" width="1" height="4" class="noggles"/><rect x="11" y="6" width="1" height="4" class="noggles"/><rect x="7" y="8" width="1" height="1" class="noggles"/><rect x="12" y="8" width="1" height="1" class="noggles"/><rect x="9" y="6" width="2" height="1" class="noggles"/><rect x="14" y="6" width="2" height="1" class="noggles"/><rect x="14" y="9" width="2" height="1" class="noggles"/><rect x="9" y="9" width="2" height="1" class="noggles"/><rect x="15" y="7" width="1" height="2" fill="black"/><rect x="10" y="7" width="1" height="2" fill="black"/><rect x="14" y="7" width="1" height="2" fill="white"/><rect x="9" y="7" width="1" height="2" fill="white"/></svg>