<svg width="24" height="24" viewBox="0 0 24 24" fill="none" xmlns="http://www.w3.org/2000/svg"><style type="text/css">.noggles{fill:#513340;}.tintable{fill:#000000;}</style><rect x="0" y="0" width="24" height="24" fill="#3e5d25"/><rect x="5" y="18" width="6" height="4" fill="#08030D"/><rect x="4" y="21" width="1" height="1" fill="#08030D"/><rect x="19" y="21" width="1" height="1" fill="#08030D"/><rect width="6" height="4" transform="matrix(-1 0 0 1 19 18)" fill="#08030D"/><rect width="14" height="4" transform="matrix(1 0 0 -1 5 15)" class="tintable"/><rect x="6" y="2" width="1" height="1" fill="#F9F4F2"/><rect x="20" y="8" width="1" height="1" fill="#F9F4F2"/><rect x="3" y="15" width="1" height="1" fill="#F9F4F2"/><rect x="9" y="19" width="1" height="2" fill="#F9F4F2"/><rect x="17" y="19" width="1" height="2" fill="#F9F4F2"/><rect x="13" y="13" width="1" height="2" fill="#F9F4F2"/><rect x="7" y="9" width="11" height="4" fill="#F9F4F2"/><rect x="14" y="4" width="2" height="1" fill="#F9F4F2"/><rect x="7" y="2" width="2" height="1" class="tintable"/><rect x="20" y="9" width="1" height="4" class="tintable"/><rect x="3" y="11" width="1" height="4" class="tintable"/><rect width="1" height="1" transform="matrix(1 0 0 -1 19 14)" class="tintable"/><rect width="1" height="1" transform="matrix(1 0 0 -1 4 11)" class="tintable"/><rect x="7" y="3" width="4" height="1" class="tintable"/><rect x="8" y="4" width="4" height="1" class="tintable"/><rect x="5" y="17" width="6" height="1" class="tintable"/><rect x="13" y="17" width="6" height="1" class="tintable"/><rect x="8" y="5" width="4" height="1" fill="#F9F4F2"/><rect x="5" y="16" width="14" height="1" fill="#F9F4F2"/><rect x="8" y="6" width="6" height="1" fill="#F38B7C"/><rect width="1" height="1" transform="matrix(-1 0 0 1 21 7)" fill="#F38B7C"/><rect width="1" height="1" transform="matrix(-1 0 0 1 4 16)" fill="#F38B7C"/><rect x="7" y="7" width="7" height="2" fill="#F38B7C"/><rect x="8" y="10" width="9" height="1" fill="#FF0E0E"/><rect x="5" y="15" width="7" height="1" fill="#08030D"/><rect x="15" y="15" width="4" height="1" fill="#08030D"/><rect x="12" y="15" width="3" height="1" fill="#F0C14D"/><rect x="6" y="8" width="1" height="2" class="noggles"/><rect x="8" y="6" width="1" height="4" class="noggles"/><rect x="13" y="6" width="1" height="4" class="noggles"/><rect x="16" y="6" width="1" height="4" class="noggles"/><rect x="11" y="6" width="1" height="4" class="noggles"/><rect x="7" y="8" width="1" height="1" class="noggles"/><rect x="12" y="8" width="1" height="1" class="noggles"/><rect x="9" y="6" width="2" height="1" class="noggles"/><rect x="14" y="6" width="2" height="1" class="noggles"/><rect x="14" y="7" width="1" height="3" class="noggles"/><rect x="9" y="7" width="1" height="3" class="noggles"/><rect x="10" y="8" width="1" height="2" class="noggles"/><rect x="15" y="8" width="1" height="2" class="noggles"/><rect x="15" y="7" width="1" height="1" fill="white"/><rect x="10" y="7" width="1" height="1" fill="white"/></svg>