<svg width="24" height="24" viewBox="0 0 24 24" fill="none" xmlns="http://www.w3.org/2000/svg"><style type="text/css">.noggles{fill:#513340;}.tintable{fill:#000000;}</style><rect x="0" y="0" width="24" height="24" fill="#3e5d25"/><rect x="9" y="1" width="1" height="1" fill="#CB7300"/><rect x="11" y="1" width="1" height="1" fill="#CB7300"/><rect x="13" y="1" width="1" height="1" fill="#CB7300"/><rect x="12" y="3" width="1" height="1" fill="#CB7300"/><rect x="8" y="3" width="1" height="1" fill="#CB7300"/><rect x="9" y="4" width="1" height="1" fill="#CB7300"/><rect x="13" y="4" width="1" height="1" fill="#CB7300"/><rect x="13" y="7" width="1" height="1" fill="black"/><rect x="7" y="5" width="8" height="1" fill="#36262D"/><rect x="5" y="6" width="10" height="1" fill="#36262D"/><rect x="4" y="7" width="11" height="1" fill="#36262D"/><rect x="7" y="8" width="13" height="3" fill="#36262D"/><rect x="15" y="1" width="1" height="1" fill="#CB7300"/><rect x="14" y="2" width="1" height="2" fill="#CB7300"/><rect x="10" y="2" width="1" height="2" fill="#CB7300"/><rect x="13" y="7" width="1" height="1" fill="black"/><rect width="2" height="2" transform="matrix(-1 0 0 1 21 6)" class="tintable"/><rect x="10" y="11" width="9" height="1" fill="black"/><rect x="10" y="12" width="8" height="1" fill="#513340"/><rect width="3" height="11" transform="matrix(1 0 0 -1 10 24)" fill="#513340"/><rect x="11" y="7" width="1" height="1" fill="black"/><rect x="7" y="11" width="3" height="13" fill="#36262D"/><rect x="7" y="24" width="7" height="6" transform="rotate(-180 7 24)" fill="#36262D"/><rect x="3" y="8" width="1" height="3" class="noggles"/><rect x="4" y="8" width="2" height="1" class="noggles"/><rect x="6" y="6" width="1" height="6" class="noggles"/><rect x="7" y="11" width="4" height="1" class="noggles"/><rect x="7" y="6" width="4" height="1" class="noggles"/><rect x="11" y="6" width="1" height="6" class="noggles"/><rect x="12" y="8" width="1" height="1" class="noggles"/><rect x="13" y="6" width="1" height="6" class="noggles"/><rect x="18" y="6" width="1" height="6" class="noggles"/><rect x="14" y="6" width="4" height="1" class="noggles"/><rect x="14" y="11" width="4" height="1" class="noggles"/><rect x="16" y="7" width="2" height="4" fill="black"/><rect x="9" y="7" width="2" height="4" fill="black"/><rect x="14" y="7" width="2" height="4" fill="white"/><rect x="7" y="7" width="2" height="4" fill="white"/></svg>