<svg width="24" height="24" viewBox="0 0 24 24" fill="none" xmlns="http://www.w3.org/2000/svg"><style type="text/css">.noggles{fill:#513340;}.tintable{fill:#000000;}</style><rect x="0" y="0" width="24" height="24" fill="#3e5d25"/><rect x="9" y="6" width="7" height="6" fill="#F9F4F2"/><rect x="6" y="12" width="13" height="8" fill="#F9F4F2"/><rect x="11" y="1" width="3" height="4" fill="#08030D"/><rect width="7" height="1" transform="matrix(1 0 0 -1 9 6)" fill="#08030D"/><rect x="11" y="7" width="1" height="1" fill="#08030D"/><rect x="9" y="10" width="1" height="1" fill="#08030D"/><rect x="11" y="10" width="1" height="1" fill="#08030D"/><rect x="13" y="10" width="1" height="1" fill="#08030D"/><rect x="15" y="10" width="1" height="1" fill="#08030D"/><rect x="12" y="13" width="1" height="1" fill="#08030D"/><rect x="19" y="13" width="1" height="1" class="tintable"/><rect x="5" y="16" width="1" height="1" class="tintable"/><rect x="20" y="12" width="1" height="6" class="tintable"/><rect x="4" y="12" width="1" height="6" class="tintable"/><rect x="12" y="15" width="1" height="1" fill="#08030D"/><rect x="12" y="17" width="1" height="1" fill="#08030D"/><rect x="13" y="8" width="1" height="1" fill="#08030D"/><rect x="12" y="9" width="4" height="1" class="tintable"/><rect x="7" y="20" width="11" height="1" fill="#F9F4F2"/><rect x="8" y="21" width="9" height="1" fill="#F9F4F2"/><rect x="18" y="21" width="1" height="1" fill="#F9F4F2"/><rect x="19" y="20" width="2" height="2" fill="#F9F4F2"/><rect x="4" y="20" width="2" height="2" fill="#F9F4F2"/><rect x="6" y="21" width="1" height="1" fill="#F9F4F2"/><rect x="21" y="19" width="1" height="3" fill="#08030D"/><rect x="3" y="19" width="1" height="3" fill="#08030D"/><rect x="6" y="8" width="1" height="2" class="noggles"/><rect x="8" y="6" width="1" height="4" class="noggles"/><rect x="13" y="6" width="1" height="4" class="noggles"/><rect x="16" y="6" width="1" height="4" class="noggles"/><rect x="11" y="6" width="1" height="4" class="noggles"/><rect x="7" y="8" width="1" height="1" class="noggles"/><rect x="12" y="8" width="1" height="1" class="noggles"/><rect x="9" y="6" width="2" height="1" class="noggles"/><rect x="14" y="6" width="2" height="1" class="noggles"/><rect x="14" y="7" width="1" height="3" class="noggles"/><rect x="9" y="7" width="1" height="3" class="noggles"/><rect x="10" y="8" width="1" height="2" class="noggles"/><rect x="15" y="8" width="1" height="2" class="noggles"/><rect x="15" y="7" width="1" height="1" fill="white"/><rect x="10" y="7" width="1" height="1" fill="white"/></svg>