<svg width="24" height="24" viewBox="0 0 24 24" fill="none" xmlns="http://www.w3.org/2000/svg"><style type="text/css">.noggles{fill:#513340;}.tintable{fill:#000000;}</style><rect x="0" y="0" width="24" height="24" fill="#3e5d25"/><rect x="7" y="2" width="1" height="3" class="tintable"/><rect x="8" y="2" width="1" height="1" class="tintable"/><rect x="8" y="3" width="1" height="1" fill="#F38B7C"/><rect x="10" y="2" width="1" height="2" fill="#CB7300"/><rect x="12" y="2" width="1" height="2" fill="#CB7300"/><rect x="11" y="3" width="1" height="1" fill="#CB7300"/><rect x="11" y="4" width="1" height="1" fill="black"/><rect x="12" y="11" width="1" height="1" fill="black"/><rect x="10" y="11" width="1" height="1" fill="black"/><rect x="14" y="8" width="1" height="1" fill="black"/><rect x="15" y="9" width="1" height="1" fill="black"/><rect x="16" y="10" width="1" height="1" fill="black"/><rect x="17" y="11" width="1" height="1" fill="black"/><rect x="18" y="10" width="1" height="1" fill="black"/><rect x="20" y="9" width="1" height="1" fill="black"/><rect x="20" y="3" width="1" height="4" fill="black"/><rect x="19" y="7" width="3" height="1" fill="black"/><rect x="15" y="3" width="1" height="1" fill="black"/><rect x="8" y="4" width="1" height="1" class="tintable"/><rect x="10" y="4" width="1" height="1" class="tintable"/><rect x="12" y="4" width="3" height="1" class="tintable"/><rect width="1" height="1" transform="matrix(-1 0 0 1 21 8)" class="tintable"/><rect width="1" height="1" transform="matrix(-1 0 0 1 20 9)" fill="white"/><rect x="9" y="5" width="5" height="1" class="tintable"/><rect x="10" y="6" width="3" height="1" class="tintable"/><rect x="9" y="2" width="1" height="3" class="tintable"/><rect x="9" y="7" width="2" height="1" fill="#FF0E0E"/><rect x="13" y="14" width="2" height="1" fill="#FF0E0E"/><rect x="13" y="15" width="1" height="1" fill="#FF0E0E"/><rect x="13" y="9" width="2" height="1" fill="#FF0E0E"/><rect x="12" y="10" width="4" height="1" fill="#FF0E0E"/><rect x="13" y="11" width="4" height="2" fill="#FF0E0E"/><rect x="13" y="13" width="3" height="1" fill="#FF0E0E"/><rect x="13" y="7" width="1" height="2" fill="#FF0E0E"/><rect x="11" y="13" width="1" height="3" fill="#FF0E0E"/><rect x="11" y="8" width="1" height="2" fill="#FF0E0E"/><rect x="9" y="8" width="1" height="4" fill="#FF0E0E"/><rect x="7" y="9" width="1" height="3" fill="#FF0E0E"/><rect x="6" y="10" width="1" height="6" fill="#FF0E0E"/><rect x="8" y="12" width="1" height="4" fill="#FF0E0E"/><rect x="11" y="13" width="1" height="3" fill="#FF0E0E"/><rect x="9" y="12" width="1" height="6" fill="#F38B7C"/><rect x="5" y="10" width="1" height="5" fill="#FF0E0E"/><rect x="4" y="11" width="1" height="4" fill="#FF0E0E"/><rect x="3" y="11" width="1" height="3" fill="#FF0E0E"/><rect x="2" y="12" width="1" height="1" fill="#FF0E0E"/><rect x="8" y="8" width="1" height="4" fill="black"/><rect x="7" y="12" width="1" height="3" fill="black"/><rect x="11" y="7" width="2" height="1" fill="white"/><rect x="7" y="15" width="1" height="1" fill="white"/><rect x="7" y="16" width="1" height="1" class="tintable"/><rect x="8" y="18" width="1" height="1" fill="#F38B7C"/><rect x="5" y="18" width="1" height="1" fill="#F38B7C"/><rect x="6" y="19" width="2" height="1" fill="#F38B7C"/><rect x="10" y="12" width="3" height="1" fill="#CB7300"/><rect x="12" y="8" width="1" height="2" fill="white"/><rect width="1" height="2" transform="matrix(1 0 0 -1 11 12)" fill="white"/><rect width="1" height="3" transform="matrix(1 0 0 -1 10 11)" fill="white"/><rect x="10" y="13" width="1" height="4" fill="#CB7300"/><rect x="10" y="17" width="1" height="4" fill="#FF0E0E"/><rect x="12" y="17" width="1" height="4" fill="#FF0E0E"/><rect x="12" y="13" width="1" height="4" fill="#CB7300"/><rect x="9" y="21" width="2" height="1" fill="#FF0E0E"/><rect x="12" y="21" width="2" height="1" fill="#FF0E0E"/><rect x="6" y="8" width="1" height="2" class="noggles"/><rect x="8" y="6" width="1" height="4" class="noggles"/><rect x="13" y="6" width="1" height="4" class="noggles"/><rect x="16" y="6" width="1" height="4" class="noggles"/><rect x="11" y="6" width="1" height="4" class="noggles"/><rect x="7" y="8" width="1" height="1" class="noggles"/><rect x="12" y="8" width="1" height="1" class="noggles"/><rect x="9" y="6" width="2" height="1" class="noggles"/><rect x="14" y="6" width="2" height="1" class="noggles"/><rect x="14" y="9" width="2" height="1" class="noggles"/><rect x="9" y="9" width="2" height="1" class="noggles"/><rect x="15" y="7" width="1" height="2" fill="black"/><rect x="10" y="7" width="1" height="2" fill="black"/><rect x="14" y="7" width="1" height="2" fill="white"/><rect x="9" y="7" width="1" height="2" fill="white"/></svg>