<svg width="24" height="24" viewBox="0 0 24 24" fill="none" xmlns="http://www.w3.org/2000/svg"><style type="text/css">.noggles{fill:#513340;}.tintable{fill:#000000;}</style><rect x="0" y="0" width="24" height="24" fill="#3e5d25"/><rect x="11" y="1" width="1" height="1" class="tintable"/><rect x="9" y="15" width="1" height="1" class="tintable"/><rect x="12" y="15" width="1" height="1" class="tintable"/><rect x="2" y="6" width="1" height="1" class="tintable"/><rect x="10" y="2" width="3" height="1" class="tintable"/><rect x="3" y="9" width="3" height="1" class="tintable"/><rect x="2" y="8" width="3" height="1" class="tintable"/><rect x="1" y="7" width="3" height="1" class="tintable"/><rect x="11" y="3" width="3" height="1" class="tintable"/><rect x="11" y="5" width="4" height="1" class="tintable"/><rect x="10" y="6" width="4" height="1" class="tintable"/><rect x="11" y="7" width="2" height="1" class="tintable"/><rect x="10" y="8" width="3" height="1" class="tintable"/><rect x="9" y="9" width="5" height="1" class="tintable"/><rect x="4" y="10" width="11" height="1" class="tintable"/><rect x="5" y="11" width="11" height="1" class="tintable"/><rect x="6" y="12" width="10" height="1" class="tintable"/><rect x="7" y="13" width="8" height="1" class="tintable"/><rect x="8" y="14" width="6" height="1" class="tintable"/><rect x="10" y="4" width="5" height="1" class="tintable"/><rect x="9" y="16" width="1" height="5" fill="white"/><rect x="12" y="16" width="1" height="5" fill="white"/><rect x="9" y="21" width="2" height="1" fill="white"/><rect x="12" y="21" width="2" height="1" fill="white"/><rect x="13" y="7" width="1" height="2" fill="black"/><rect x="16" y="7" width="2" height="3" fill="#CB7300"/><rect x="18" y="8" width="1" height="1" fill="#CB7300"/><rect x="14" y="6" width="1" height="4" fill="black"/><rect x="15" y="5" width="1" height="6" fill="black"/><rect x="3" y="8" width="1" height="3" class="noggles"/><rect x="4" y="8" width="2" height="1" class="noggles"/><rect x="6" y="6" width="1" height="6" class="noggles"/><rect x="7" y="11" width="4" height="1" class="noggles"/><rect x="7" y="6" width="4" height="1" class="noggles"/><rect x="11" y="6" width="1" height="6" class="noggles"/><rect x="12" y="8" width="1" height="1" class="noggles"/><rect x="13" y="6" width="1" height="6" class="noggles"/><rect x="18" y="6" width="1" height="6" class="noggles"/><rect x="14" y="6" width="4" height="1" class="noggles"/><rect x="14" y="11" width="4" height="1" class="noggles"/><rect x="16" y="7" width="2" height="4" fill="black"/><rect x="9" y="7" width="2" height="4" fill="black"/><rect x="14" y="7" width="2" height="4" fill="white"/><rect x="7" y="7" width="2" height="4" fill="white"/></svg>